Format of model metrics: (score, n_trees, d, mss, msl, mf, mln, train_time, val_time)

Fastball
total samples: 580335 
training samples: 348201 
validation samples: 232134 

(0.6569610655914256, 100, None, 100, 100, 9, 100, 46.23070788383484, 0.41133594512939453)
(0.6618763300507465, 100, None, 100, 100, 9, 500, 54.53627014160156, 0.4937617778778076)
(0.6627034385311932, 100, None, 100, 100, 9, None, 57.06975793838501, 0.6156249046325684)
(0.6572583077015861, 100, None, 1000, 100, 9, 100, 45.04111313819885, 0.38840508460998535)
(0.6603341173632471, 100, None, 1000, 100, 9, 500, 53.493754863739014, 0.49512791633605957)
(0.6604504294933099, 100, None, 1000, 100, 9, None, 52.21322965621948, 0.5009257793426514)
~~~~~~~~~~~~~~~~~~~~~~~~~~~~~~~~
 (0.6627034385311932, 100, None, 100, 100, 9, None, 57.06975793838501, 0.6156249046325684) 
~~~~~~~~~~~~~~~~~~~~~~~~~~~~~~~~

Curveball
total samples: 85542 
training samples: 51325 
validation samples: 34217 

(0.6561358389104831, 100, None, 100, 100, 9, 100, 4.064948081970215, 0.06704497337341309)
(0.6559897127159015, 100, None, 100, 100, 9, 500, 4.359917879104614, 0.07921910285949707)
(0.6571587222725546, 100, None, 100, 100, 9, None, 4.232080936431885, 0.08095526695251465)
(0.6505538182774644, 100, None, 1000, 100, 9, 100, 3.61344575881958, 0.06566500663757324)
(0.6508168454277113, 100, None, 1000, 100, 9, 500, 3.6044909954071045, 0.06711125373840332)
(0.6505538182774644, 100, None, 1000, 100, 9, None, 3.54923415184021, 0.06548690795898438)
~~~~~~~~~~~~~~~~~~~~~~~~~~~~~~~~
 (0.6571587222725546, 100, None, 100, 100, 9, None, 4.232080936431885, 0.08095526695251465) 
~~~~~~~~~~~~~~~~~~~~~~~~~~~~~~~~

ChangeUp
total samples: 109613 
training samples: 65767 
validation samples: 43846 

(0.6300916845322264, 100, None, 100, 100, 9, 100, 5.762722969055176, 0.08424592018127441)
(0.6309583542398395, 100, None, 100, 100, 9, 500, 6.407522916793823, 0.10075807571411133)
(0.6303197555079141, 100, None, 100, 100, 9, None, 6.199273347854614, 0.10070490837097168)
(0.6250741230670985, 100, None, 1000, 100, 9, 100, 5.447950839996338, 0.08137297630310059)
(0.6250741230670985, 100, None, 1000, 100, 9, 500, 5.4303600788116455, 0.0836789608001709)
(0.6244127172376044, 100, None, 1000, 100, 9, None, 5.32544469833374, 0.08222198486328125)
~~~~~~~~~~~~~~~~~~~~~~~~~~~~~~~~
 (0.6309583542398395, 100, None, 100, 100, 9, 500, 6.407522916793823, 0.10075807571411133) 
~~~~~~~~~~~~~~~~~~~~~~~~~~~~~~~~

Slider
total samples: 176522 
training samples: 105913 
validation samples: 70609 

(0.6324547862170545, 100, None, 100, 100, 9, 100, 10.726863145828247, 0.12804579734802246)
(0.6342959112860966, 100, None, 100, 100, 9, 500, 13.885810852050781, 0.1669919490814209)
(0.6333470237505134, 100, None, 100, 100, 9, None, 13.076969861984253, 0.1590878963470459)
(0.6301038111288929, 100, None, 1000, 100, 9, 100, 10.1644868850708, 0.12275409698486328)
(0.6301321361299551, 100, None, 1000, 100, 9, 500, 10.503341913223267, 0.12995195388793945)
(0.6303304111373904, 100, None, 1000, 100, 9, None, 10.153008937835693, 0.13093304634094238)
~~~~~~~~~~~~~~~~~~~~~~~~~~~~~~~~
 (0.6342959112860966, 100, None, 100, 100, 9, 500, 13.885810852050781, 0.1669919490814209) 
~~~~~~~~~~~~~~~~~~~~~~~~~~~~~~~~